<svg width="49" height="57" viewBox="0 0 49 57" fill="none" xmlns="http://www.w3.org/2000/svg">
<g clip-path="url(#clip0)">
<path d="M20.5293 55.6375C20.5293 55.999 20.3876 56.3457 20.1356 56.6014C19.8835 56.857 19.5415 57.0006 19.185 57.0006C15.596 57.0006 14.4028 54.4636 13.4438 52.4253C13.3137 52.148 10.8416 47.1949 10.8416 47.1949C5.5973 36.743 0.00201416 25.1198 0.00201416 19.4563C0.00229483 14.5721 1.81419 9.86661 5.07782 6.27454C8.34145 2.68247 12.818 0.466573 17.6185 0.0669651C22.4189 -0.332643 27.1919 1.11328 30.9896 4.11754C34.7872 7.1218 37.3316 11.4646 38.1174 16.2834C38.1665 16.6361 38.0774 16.9943 37.8694 17.2813C37.6613 17.5683 37.3507 17.7613 37.0041 17.819C36.6574 17.8767 36.3023 17.7945 36.0146 17.59C35.727 17.3856 35.5297 17.075 35.4651 16.7249C34.7887 12.5815 32.6003 8.84769 29.3345 6.26489C26.0688 3.68209 21.9645 2.43927 17.8369 2.78326C13.7092 3.12725 9.86014 5.03287 7.05403 8.12168C4.24792 11.2105 2.69007 15.2565 2.68986 19.4563C2.68986 24.939 9.55132 38.6133 13.2369 45.9599C13.2369 45.9599 15.7349 50.9625 15.872 51.2534C16.8577 53.3495 17.3705 54.2782 19.1869 54.2782C19.5425 54.2786 19.8835 54.4218 20.1351 54.6766C20.3867 54.9314 20.5284 55.2769 20.5293 55.6375V55.6375ZM19.1857 12.4276C20.5563 12.4276 21.8961 12.8398 23.0358 13.612C24.1754 14.3841 25.0636 15.4817 25.5882 16.7657C26.1127 18.0498 26.2499 19.4628 25.9825 20.8259C25.7151 22.1891 25.0551 23.4413 24.0859 24.4241C23.1167 25.4068 21.8819 26.0761 20.5376 26.3473C19.1934 26.6184 17.8 26.4793 16.5337 25.9474C15.2674 25.4155 14.1851 24.5148 13.4236 23.3592C12.6621 22.2035 12.2557 20.8449 12.2557 19.455C12.2577 17.5918 12.9884 15.8056 14.2876 14.4882C15.5868 13.1707 17.3483 12.4297 19.1857 12.4276V12.4276ZM19.1857 15.1532C18.3468 15.1532 17.5267 15.4055 16.8292 15.8781C16.1317 16.3507 15.588 17.0225 15.267 17.8084C14.946 18.5943 14.862 19.4591 15.0256 20.2934C15.1893 21.1278 15.5933 21.8942 16.1865 22.4957C16.7796 23.0972 17.5354 23.5068 18.3582 23.6728C19.181 23.8387 20.0338 23.7536 20.8088 23.428C21.5839 23.1025 22.2463 22.5512 22.7124 21.8439C23.1784 21.1366 23.4272 20.305 23.4272 19.4543C23.4257 18.3141 22.9783 17.2211 22.1832 16.4149C21.388 15.6087 20.3101 15.1552 19.1857 15.1539V15.1532ZM48.2537 28.6969L34.2014 54.0111C34.1908 54.0305 34.1796 54.0495 34.1678 54.0684C33.6119 54.9627 32.8425 55.7003 31.9307 56.2128C31.019 56.7254 29.9945 56.9963 28.952 57.0006C28.9013 57.0006 28.8505 57.0006 28.7997 57.0006C27.809 56.9854 26.8401 56.7031 25.9925 56.1829C25.1449 55.6626 24.449 54.9231 23.9762 54.0401L16.487 40.5518C15.728 39.1785 15.538 37.5557 15.9588 36.0403C16.3797 34.525 17.377 33.2413 18.7312 32.4715C20.0855 31.7018 21.6858 31.5092 23.1802 31.9359C24.6745 32.3627 25.9405 33.374 26.6996 34.7473L29.0828 39.04L38.0431 22.8905C38.8047 21.5219 40.0705 20.5154 41.5628 20.0917C43.0552 19.668 44.6523 19.8618 46.004 20.6304C47.3557 21.399 48.3516 22.6798 48.7735 24.1919C49.1954 25.7041 49.0087 27.3241 48.2544 28.6969H48.2537ZM44.6951 22.9947C43.9628 22.5786 43.0975 22.4745 42.2894 22.7052C41.4814 22.936 40.7969 23.4828 40.3863 24.2253L30.2512 42.4832C30.1342 42.6939 29.9641 42.8692 29.7583 42.9912C29.5524 43.1132 29.3183 43.1775 29.0799 43.1775C28.8415 43.1775 28.6074 43.1132 28.4016 42.9912C28.1957 42.8692 28.0256 42.6939 27.9086 42.4832L24.3545 36.0782C24.1538 35.706 23.8823 35.3779 23.5558 35.1127C23.2294 34.8476 22.8543 34.6506 22.4523 34.5333C22.0503 34.416 21.6294 34.3807 21.2138 34.4293C20.7983 34.4779 20.3964 34.6096 20.0313 34.8167C19.6663 35.0238 19.3453 35.3022 19.0869 35.6358C18.8286 35.9694 18.638 36.3516 18.5262 36.7603C18.4144 37.1691 18.3836 37.5963 18.4356 38.0171C18.4876 38.438 18.6213 38.8443 18.829 39.2125L26.3181 52.7034C26.5647 53.1736 26.9318 53.5676 27.3807 53.844C27.8296 54.1204 28.3437 54.2688 28.8689 54.2737C29.4662 54.2859 30.0565 54.1423 30.5833 53.8566C31.1101 53.5709 31.5557 53.1528 31.8772 52.6422L45.9118 27.3621C46.3205 26.6192 46.4219 25.7422 46.194 24.9235C45.966 24.1048 45.4272 23.4112 44.6957 22.9947H44.6951Z" fill="white"/>
</g>
<defs>
<clipPath id="clip0">
<rect width="49" height="57" fill="white"/>
</clipPath>
</defs>
</svg>
