<svg width="60" height="57" viewBox="0 0 60 57" fill="none" xmlns="http://www.w3.org/2000/svg">
<path d="M15.6895 22.3595L27.801 34.5342L56.153 6.03188" stroke="white" stroke-width="7" stroke-miterlimit="10" stroke-linecap="round" stroke-linejoin="round"/>
<path d="M50.4821 22.6331C50.9704 24.5306 51.211 26.4839 51.1979 28.4439C51.2184 33.6677 49.4736 38.7438 46.2492 42.8406C43.0249 46.9374 38.5122 49.8123 33.4501 50.9942C28.3881 52.1761 23.0769 51.595 18.3863 49.3462C13.6957 47.0973 9.90379 43.314 7.63167 38.6158C5.35955 33.9177 4.74189 28.5832 5.87983 23.486C7.01777 18.3889 9.84386 13.8312 13.8952 10.5596C17.9466 7.28793 22.9832 5.49619 28.1799 5.47781C33.3767 5.45942 38.4256 7.21549 42.4998 10.4584L46.1882 6.3632C41.1899 2.29824 34.9651 0.0625011 28.5359 0.0230828C22.1067 -0.0163355 15.8552 2.1429 10.8079 6.14627C5.7606 10.1496 2.21744 15.7592 0.760215 22.0539C-0.697014 28.3486 0.0182891 34.9543 2.78867 40.7864C5.55905 46.6185 10.2199 51.3304 16.0058 54.1484C21.7918 56.9664 28.359 57.723 34.6292 56.2941C40.8994 54.8651 46.4999 51.3355 50.5111 46.2847C54.5224 41.2339 56.706 34.9622 56.7034 28.4993C56.7001 24.901 56.028 21.3349 54.7216 17.9848L50.4821 22.6331Z" fill="white"/>
</svg>
