<svg xmlns="http://www.w3.org/2000/svg" width="55.006" height="79.923" viewBox="0 0 55.006 79.923"><defs><style>.a,.c{fill:none;stroke-width:2px;}.a,.c,.d{stroke:#fff;}.a{stroke-linecap:round;stroke-linejoin:round;stroke-miterlimit:10;}.b,.d{fill:#fff;}.d{stroke-width:0.6px;}</style></defs><g transform="translate(-989.274 -256.006)"><g transform="translate(16 17.739)"><path class="a" d="M517.5,324.427l4.793,4.793L533.513,318" transform="translate(493.353 -34.365)"/><path class="b" d="M508.979,316.011a8.9,8.9,0,0,1,.283,2.288,9.078,9.078,0,1,1-3.442-7.081l1.46-1.612a11.216,11.216,0,1,0,4.161,8.715,11.373,11.373,0,0,0-.784-4.14Z" transform="translate(515.644 -25.839)"/></g><path class="c" d="M261.849,214.148c-1.264,1.673-2.519,3.347-3.8,5a3.753,3.753,0,0,1-.757.694.836.836,0,0,1-1.086.009,3.445,3.445,0,0,1-.641-.605c-1.113-1.478-2.234-2.937-3.294-4.451-4.29-6.1-8.4-12.311-12.106-18.782A90.222,90.222,0,0,1,234.3,184.1a32.865,32.865,0,0,1-1.843-6.133,19.143,19.143,0,0,1-.178-5.092,23.486,23.486,0,0,1,3.347-10.37,24.53,24.53,0,0,1,15.364-11.358,25.156,25.156,0,0,1,8.519-.525,24.513,24.513,0,0,1,20.5,16.245,22.411,22.411,0,0,1,1.086,11.118,28.543,28.543,0,0,1-1.362,4.8c-.632,1.8-1.424,3.552-2.136,5.323-.08.2-.187.24-.4.223a19.819,19.819,0,0,0-6.6.24,16.029,16.029,0,0,0-12.062,12.578,15.784,15.784,0,0,0,3.009,12.6C261.627,213.863,261.725,213.979,261.849,214.148Zm5.029-42.05a10.083,10.083,0,0,0-10.041-10.023A10.108,10.108,0,1,0,266.879,172.1Z" transform="translate(758.085 106.516)"/><path class="d" d="M264.886,786.515l-1.718,1.691c1.127.718,1.8,1.514,1.8,2.287,0,2.182-5.11,4.624-11.955,4.624s-11.955-2.436-11.955-4.624c0-.84.773-1.718,2.1-2.486l-1.569-1.806c-1.823,1.166-2.889,2.641-2.889,4.292,0,3.967,6.149,6.966,14.3,6.966s14.3-2.994,14.3-6.966A5.056,5.056,0,0,0,264.886,786.515Z" transform="translate(761.861 -461.83)"/></g></svg>