<svg xmlns="http://www.w3.org/2000/svg" width="60.421" height="79.323" viewBox="0 0 60.421 79.323"><defs><style>.a{fill:#40d192;}</style></defs><g transform="translate(-61)"><path class="a" d="M121.421,68.792A22.2,22.2,0,0,0,102.83,46.919V44.3a11.609,11.609,0,0,0,4.648-9.289V19.06c3.01-2.04,4.648-4.642,4.648-7.44C112.126,3.326,99.611,0,91.211,0,82.667,0,70.3,3.39,70.3,11.62c0,2.8,1.638,5.4,4.648,7.44V35.013A11.609,11.609,0,0,0,79.591,44.3v2.617A22.2,22.2,0,0,0,61,68.792V79.323h60.421ZM85.3,56.383l2.725,2.25-1.887,2.516Zm1.942,11.04,3.973-5.3,3.973,5.3-1.276,7.252H88.514Zm9.049-6.275L94.4,58.633l2.725-2.25Zm-.429-19.163h-9.3a6.98,6.98,0,0,1-6.972-6.972V25.557a11.559,11.559,0,0,0,6.972,2.33h9.3a11.559,11.559,0,0,0,6.972-2.33v9.457A6.98,6.98,0,0,1,95.859,41.985ZM79.989,18.59h22.443a6.983,6.983,0,0,1-6.574,4.649h-9.3A6.983,6.983,0,0,1,79.989,18.59ZM91.211,4.648c9.31,0,16.267,3.681,16.267,6.972a3.539,3.539,0,0,1-1.1,2.324H76.042a3.539,3.539,0,0,1-1.1-2.324C74.943,8.329,81.9,4.648,91.211,4.648ZM86.563,46.633h9.3a11.628,11.628,0,0,0,2.324-.234v3.084l-6.972,5.756-6.972-5.756V46.4a11.628,11.628,0,0,0,2.324.234ZM65.648,68.792a17.54,17.54,0,0,1,14.09-17.176l4.056,23.059H65.648Zm51.126,5.883H98.627l4.056-23.059a17.54,17.54,0,0,1,14.09,17.176Z" transform="translate(0 0)"/></g></svg>