<svg xmlns="http://www.w3.org/2000/svg" width="36" height="18.72" viewBox="0 0 36 18.72"><defs><style>.a{fill:#fff;}</style></defs><path class="a" d="M30.96,8.64H0V27.36H36V8.64Zm3.6,13.875a4.824,4.824,0,0,0-3.4,3.4H4.845a4.826,4.826,0,0,0-3.4-3.4v-9.03a4.826,4.826,0,0,0,3.4-3.4H31.172a5.045,5.045,0,0,0,3.388,3.388v9.047ZM19.524,19.48c-.166-.1-.084-.194-.8-.279v2.086l.395-.073a1.049,1.049,0,0,0,.8-1.045A.77.77,0,0,0,19.524,19.48Zm-3.241-3.4a.773.773,0,0,0,.437.72,2.912,2.912,0,0,0,.559.208V15.031a1.724,1.724,0,0,0-.554.227A.93.93,0,0,0,16.283,16.076ZM18,10.8c-3.579,0-6.48,3.224-6.48,7.2s2.9,7.2,6.48,7.2,6.48-3.225,6.48-7.2S21.579,10.8,18,10.8Zm2.775,11.271a4.27,4.27,0,0,1-2.055.77v.919H17.28v-.936a3.7,3.7,0,0,1-1.863-.6A2.678,2.678,0,0,1,14.4,20.16h1.791c.058,0,.172.577.342.78s.427.234.747.323V18.811a5.746,5.746,0,0,1-1.826-.655,2.19,2.19,0,0,1-.908-1.944,2.58,2.58,0,0,1,.888-2,3.292,3.292,0,0,1,1.845-.753V12.24h1.44v1.253a3.535,3.535,0,0,1,1.656.775A2.356,2.356,0,0,1,21.56,16.56h-1.8a1.345,1.345,0,0,0-.844-1.259,1.467,1.467,0,0,1-.192-.149v2.263l.649.125a4.713,4.713,0,0,1,1.673.652,2.161,2.161,0,0,1,.743,1.834,2.634,2.634,0,0,1-1.011,2.045Z" transform="translate(0 -8.64)"/></svg>