<svg xmlns="http://www.w3.org/2000/svg" width="301.668" height="209.896" viewBox="0 0 301.668 209.896"><defs><style>.a{fill:#c6f9e3;opacity:0.4;}.b{fill:#7a7a7a;mix-blend-mode:screen;}.af,.ag,.b{isolation:isolate;}.c{fill:#5c8097;}.d{fill:#ff7446;}.e{fill:#001653;}.f{fill:#7b5119;}.g{fill:#957447;}.h{fill:#f25c12;}.i{fill:#fa8e00;}.j{fill:#021f6e;}.k{fill:#021753;}.l{fill:#5d70a2;}.m{fill:#8f4800;}.n{fill:#fcb500;}.o{fill:#fcdb86;}.p{fill:#b5450e;opacity:0.6;}.q{fill:#00424c;}.r{fill:#0087fc;}.s{fill:#0062b8;}.t{fill:#ffe6a6;}.u{fill:#557a80;}.v{fill:#100062;}.w{fill:#0c004a;}.x{fill:#fff;}.y{fill:#fcc332;}.z{fill:#fc9700;}.aa{fill:#ffa283;}.ab{fill:#09434c;}.ac{fill:#0001ab;}.ad{fill:#531c2e;opacity:0.51;}.ae{fill:#0001e4;}.af{fill:#f7604b;}.af,.ag{mix-blend-mode:multiply;}.ag{fill:#ff4900;opacity:0.68;}.ah{fill:#acf0fd;}.ai{fill:#69bfdb;}.aj{fill:#ccf7ff;}.ak{fill:#0b0080;}.al{fill:#080060;}</style></defs><g transform="translate(-146.872 -198.092)"><path class="a" d="M293.509,222.857c-42.453,31.445-28.68,78.426-28.68,78.426s-47.644,8.088-55.278,50.044,7.8,56.126,7.8,56.126l265.935.534s41.427-115.631-1.985-170.11S335.962,191.411,293.509,222.857Z" transform="translate(-52.975)"/><path class="b" d="M1610.437,1245.883a23.369,23.369,0,0,1,6.483-.916c2.2-2.4,7.337-3.993,13.172-3.993a26.123,26.123,0,0,1,9.383,1.611c2.849-2.976,9.394-5.056,16.809-5.056a32.253,32.253,0,0,1,12.916,2.434c.49-.036.985-.053,1.482-.053,5.306,0,9.623,1.973,9.623,4.4a2.442,2.442,0,0,1-.641,1.575Z" transform="translate(-1280.277 -909.265)"/><path class="b" d="M302.168,1351.125a31.8,31.8,0,0,0-8.816-1.245c-2.995-3.256-9.976-5.43-17.911-5.43a35.519,35.519,0,0,0-12.759,2.191c-3.875-4.047-12.774-6.875-22.857-6.875a47.235,47.235,0,0,0-14.757,2.212,57.222,57.222,0,0,0-2.07,8.048q-.1.553-.2,1.1Z" transform="translate(-66.421 -998.698)"/><path class="b" d="M2101.84,1005.569a19.513,19.513,0,0,0-4.147-.43c-.5,0-.991.018-1.481.053a32.253,32.253,0,0,0-12.916-2.434c-7.415,0-13.96,2.08-16.809,5.056a26.123,26.123,0,0,0-9.383-1.611c-5.835,0-10.97,1.6-13.172,3.993a23.378,23.378,0,0,0-6.483.916h64.506Q2101.936,1008.338,2101.84,1005.569Z" transform="translate(-1653.812 -703.895)"/><path class="b" d="M724.535,632.571c.765,0,.8-.826.038-.857q-.42-.017-.847-.02c-2.111-2.3-7.033-3.828-12.627-3.828a25.038,25.038,0,0,0-8.995,1.544c-2.732-2.853-9.005-4.846-16.114-4.846a37.446,37.446,0,0,0-4.69.293,70.728,70.728,0,0,0-3.029,7.715Z" transform="translate(-464.85 -373.063)"/><path class="c" d="M445.668,1834.012H149.744a2.872,2.872,0,0,1-2.872-2.872h0a2.872,2.872,0,0,1,2.872-2.872H445.668a2.872,2.872,0,0,1,2.872,2.872h0A2.872,2.872,0,0,1,445.668,1834.012Z" transform="translate(0 -1426.024)"/><g transform="translate(175.903 198.908)"><g transform="translate(119.046 0)"><path class="d" d="M1999.91,1662.555s.026.232.026.618a8.207,8.207,0,0,1-2.039,5.6c-2.417,2.515-2.432,5.643.122,6.177s8.644-.171,8.644-.171,1.377-2.392.437-8.783-1.486-13.4-1.486-13.4l-6.939-1.083Z" transform="translate(-1912.585 -1470.316)"/><path class="e" d="M1990.7,1758.936a39.62,39.62,0,0,0-3.177,4.95c-.6,1.457-.473,5.082,0,5.455,4.162,3.286,12.054.328,12.054.328a47.015,47.015,0,0,0,.817-5.367c.274-2.957.119-5.713-.817-5.713s-1.1,1.551-3.236,1.113S1992.887,1758.5,1990.7,1758.936Z" transform="translate(-1904.731 -1563.979)"/><path class="f" d="M2000.228,1815.973a27.668,27.668,0,0,1-5.808,1.649c-2.162.309-5.073-.654-7.269-1.621-.114,1.549.049,3.285.369,3.538,4.162,3.286,12.054.328,12.054.328S1999.944,1818.218,2000.228,1815.973Z" transform="translate(-1904.731 -1614.176)"/><path class="g" d="M2000.48,1815.973c-5.971,1.794-7.07,2.112-13.077.028a18.3,18.3,0,0,0,3.141,1.328,8.945,8.945,0,0,0,5.112.33A22.133,22.133,0,0,0,2000.48,1815.973Z" transform="translate(-1904.983 -1614.176)"/><path class="h" d="M1453.684,714.578c1.708.642,3.973,1.6,3.973,1.6.293-.7-5.346-1.91-6.136-3.626-.423-.919,6.47,2.463,6.949,2.06.2-.167-7.8-2.77-7.429-3.4.31-.528,8.408,2.326,8.452,1.931.062-.549-7.011-1.968-6.378-2.758.324-.4,8.909,1.917,9.835,2.052,1.133,0-2.968-2.786-1.571-3.158,1.9-.506,6.661,4.956,7.033,5.033,1.078.224,10.261,1.348,14.757-1.593,3.631-2.375,7.155-6.027,8.017-9.172.846-3.083,2.017-7.487,1.016-10.885a44.607,44.607,0,0,1,12.209-.269c.252,5.1-5.856,25.317-8.41,26.981-5.619,3.659-15.643,2.764-22.711,2.182a43.7,43.7,0,0,1-16.4-4.195,11.891,11.891,0,0,1-3.57-2.246A.334.334,0,0,1,1453.684,714.578Z" transform="translate(-1435.781 -631.042)"/><path class="i" d="M1763.7,517.258c-3.044,3.144-6.117,21.982-4.986,26.472,1.953,3.647,10.8,4.276,13.659,6.006,6.6-2.713,2.079-14.881,2.079-14.881l2.406-23.7A20.409,20.409,0,0,0,1763.7,517.258Z" transform="translate(-1704.72 -472.765)"/><path class="d" d="M1761.243,1675.032a7.239,7.239,0,0,1-2.3,7.821,12.172,12.172,0,0,1-2.77,1.708c-4.042,1.767-9.277,1.37-10.007,5s25.631-1.019,25.631-1.019-1.829-8.828-1.947-10.307.161-6.909.161-6.909l-10.18-.731Z" transform="translate(-1693.945 -1487.005)"/><path class="e" d="M1768.154,1751.544s.323,1.4,1.061,3.779a10.3,10.3,0,0,1,.278,4.615s-24.691,1.17-25.69.387-.486-3.629-.233-3.881,3.386-1.1,4.993-2.09,7.1-4.743,8.949-4.591,2.71,1.521,6.232,1.678S1767.28,1750.859,1768.154,1751.544Z" transform="translate(-1691.372 -1556.254)"/><path class="f" d="M1743.8,1807.025c1,.782,25.69-.388,25.69-.388a10.342,10.342,0,0,0,.024-3.29c-12.889,2.388-25.948-.2-25.948-.2C1743.317,1803.4,1742.8,1806.243,1743.8,1807.025Z" transform="translate(-1691.372 -1602.954)"/><path class="g" d="M1772.02,1803.347a67.37,67.37,0,0,1-25.948-.2,90.32,90.32,0,0,0,23.526.533Z" transform="translate(-1693.875 -1602.954)"/><path class="j" d="M1791.16,950.11c4.237,15.491-1.023,84.976-1.023,84.976l-12.683-.868s-2.885-69.125-4.978-71.218a1.278,1.278,0,0,0-1.776-.071,2.753,2.753,0,0,0-1.049,1.473c-1.305,4.265-8.765,29.093-7.261,34.53,1.646,5.953,8.995,37.845,8.995,37.845l-10.642.425s-14.591-24.364-14.591-41.373,2.373-39.556,9.268-48.73c3.138-4.175,18.589-7.406,18.589-7.406S1789.837,945.272,1791.16,950.11Z" transform="translate(-1693.946 -847.637)"/><g transform="translate(65.099 99.258)"><path class="k" d="M1858.29,1190.871s-7.348-34.005-8.995-40.353c-1.2-4.61,3.276-22.292,5.814-31.63a4.078,4.078,0,0,1,6.429-2.156h0s-10.744,30.368-9.1,36.321,9,37.845,9,37.845l-10.642.425-.077-.13Z" transform="translate(-1849.095 -1101.016)"/><path class="k" d="M2073.818,997.2a7.029,7.029,0,0,1,2.632,3.215c4.237,15.491-1.023,84.977-1.023,84.977l-3.141-.215C2072.462,1082.66,2077.017,1017.256,2073.818,997.2Z" transform="translate(-2044.335 -997.197)"/></g><path class="k" d="M1800.706,993.115a23.626,23.626,0,0,1,2.436-4.154,6.78,6.78,0,0,1,1.548-1.413,47.691,47.691,0,0,0,7.572,2.919,46.094,46.094,0,0,0,25.684-.126,4.4,4.4,0,0,1,.936,1.63,35.417,35.417,0,0,1,.9,5.169c-2.274,1.691-15.491,5.777-27.517,1.95C1804.63,996.661,1801.785,995.19,1800.706,993.115Z" transform="translate(-1741.667 -889.498)"/><path class="l" d="M1997.617,1688.722c-3.25,1.055-11.071.793-12.939,0-1.722-.732-1.839-7.138,0-7.485a60.665,60.665,0,0,1,12.939,0C1999.469,1681.5,1999.4,1688.144,1997.617,1688.722Z" transform="translate(-1901.431 -1496.011)"/><path class="l" d="M1843.621,1665.869c-3.25,1.055-11.071.793-12.939,0-1.723-.732-1.839-7.138,0-7.485a60.625,60.625,0,0,1,12.939,0C1845.474,1658.649,1845.4,1665.291,1843.621,1665.869Z" transform="translate(-1766.721 -1476.02)"/><g transform="translate(59.609 94.121)"><path class="m" d="M1805.729,956.173c.43,1.35,2.372,3.663,11.124,6.377,11.4,3.532,23.871.493,25.541-1.009.679-.61.829,6.372,0,7.117-3.3,2.969-9.147,3.5-13.383,3.63a40.588,40.588,0,0,1-12.995-1.856c-3.571-1.089-8.912-2.454-10.6-6.159A29.077,29.077,0,0,1,1805.729,956.173Z" transform="translate(-1805.26 -956.173)"/></g><path class="n" d="M1823.413,502.416s10.576-.544,14.9,4.578,3.6,55.551,1.853,57.052-14.82,5.452-26.759,1.92-12.7-8.382-12.7-8.382,1.583-32.22,1.583-42.111S1811.947,499.755,1823.413,502.416Z" transform="translate(-1741.667 -464.557)"/><path class="i" d="M2014.871,574.664c.934-2.6-.066-10.863-1.13-16.842-.833.159-1.633.348-2.39.567-1.278-3.955-2.4-14.219-2.441-20.672-.071-12.1,6.057-15.625,6.057-15.625,1.214-.277,3.157.866,6.2,4.029,3.51,9.6,2.774,54.254,1.13,55.666-.7.6-3.221,1.6-6.758,2.346C2014.617,580.522,2014.007,577.066,2014.871,574.664Z" transform="translate(-1923.797 -482.296)"/><path class="o" d="M1901.749,502.1c2.294,2.108,2.471,2.148.089,4.914s-10.272,5.91-11.4,5.379c-2.792-1.318-.194-5.72,1.665-8.885C1892.686,502.522,1899.455,499.994,1901.749,502.1Z" transform="translate(-1819.091 -464.133)"/><path class="h" d="M1905.531,324.114s-.618,14.564,0,15.2,9.469-2.445,10.24-4.252-3.225-28.136-3.225-28.136Z" transform="translate(-1833.124 -294.114)"/><path class="p" d="M1905.315,361.919a7.352,7.352,0,0,0,3.307-1.127c3.61-4.079.9-10.7,1.189-12.418.565-3.425,1.715-6.255,1.138-9.208l-5.367,13.149S1905.359,357.581,1905.315,361.919Z" transform="translate(-1833.175 -322.315)"/><g transform="translate(0 50.577)"><path class="q" d="M1527.243,681.672a1.472,1.472,0,1,0,1.2-1.2A1.473,1.473,0,0,0,1527.243,681.672Z" transform="translate(-1502.433 -671.435)"/><path class="q" d="M1516.906,618.9l.448.543.271-.65c.354-.847,3.361-8.332.041-10.035a1.908,1.908,0,0,0-2.535.442C1513.679,611,1514.13,615.536,1516.906,618.9Zm-1.114-9.168a.99.99,0,0,1,1.152-.356,2.062,2.062,0,0,1,.334.138c2.017,1.035.744,5.806-.167,8.262C1514.894,614.666,1514.8,610.961,1515.792,609.733Z" transform="translate(-1491.148 -608.471)"/><g transform="translate(26.177 4.768)"><path class="q" d="M1538.3,651.787l.692.13a10.209,10.209,0,0,0,1.871.173c3.081,0,5.772-1.377,6.423-2.966a1.73,1.73,0,0,0-.758-2.2c-2.764-1.857-7.285,3.678-7.791,4.317Zm1.582-.6c1.291-1.485,3.687-3.8,5.362-3.8a1.417,1.417,0,0,1,.811.235.9.9,0,0,1,.446,1.178C1545.983,650.061,1543.16,651.53,1539.88,651.189Z" transform="translate(-1538.298 -646.54)"/></g><path class="r" d="M11.769,0H38.085a11.77,11.77,0,0,1,11.77,11.77v0A11.769,11.769,0,0,1,38.086,23.539H11.769A11.769,11.769,0,0,1,0,11.769v0A11.769,11.769,0,0,1,11.769,0Z" transform="translate(49.854 34.513) rotate(180)"/><path class="s" d="M1332.538,696.1h15.582v23.539h-15.582a3.262,3.262,0,0,1-3.262-3.262V699.36A3.262,3.262,0,0,1,1332.538,696.1Z" transform="translate(-1329.276 -685.124)"/><path class="q" d="M1591.649,696.1h1.23c6.65,7.512,2.576,20.67,1.573,23.539h-.96c.688-1.933,5.439-16.244-1.786-23.469A.459.459,0,0,1,1591.649,696.1Z" transform="translate(-1558.791 -685.124)"/><path class="q" d="M1394.252,719.548a.443.443,0,0,1,.009.089h-.911c-2.683-13.411.278-20.5,2.277-23.539h1.127C1394.935,698.634,1391.446,705.623,1394.252,719.548Z" transform="translate(-1384.388 -685.124)"/></g><g transform="translate(82.081 103.469)"><path class="r" d="M8.5,0H24.686a8.5,8.5,0,0,1,8.5,8.5v5.291a8.5,8.5,0,0,1-8.5,8.5H8.5a8.5,8.5,0,0,1-8.5-8.5V8.5A8.5,8.5,0,0,1,8.5,0Z" transform="translate(33.897 22.292) rotate(180)"/><rect class="t" width="28.109" height="17.157" transform="translate(30.085 19.724) rotate(180)"/><path class="u" d="M1.482,0h0A1.482,1.482,0,0,1,2.964,1.482V8.328A1.482,1.482,0,0,1,1.482,9.81h0A1.482,1.482,0,0,1,0,8.328V1.482A1.482,1.482,0,0,1,1.482,0Z" transform="translate(2.964 16.051) rotate(180)"/></g><path class="h" d="M2062.261,739.859c-2.092,6.367,5.275,20.138,2.283,24.544s-1.487,9.035,2.139,11.329,8.133-.921,7.77-2.668-1.342-6.449-1.789-8.6,7.987-19.371,2.05-29.815c-3.523-6.2,1.686-16.864-1.065-23.755-2.463,4.59-14.121,1.722-13.452,6.758C2061.261,721.955,2063.437,736.28,2062.261,739.859Z" transform="translate(-1968.637 -647.491)"/><path class="d" d="M1850.233,285.567a41.679,41.679,0,0,0-1.544,9.674c0,4.359.1,11.906,3.19,11.906s7.513-.85,8.542-7.016,0-12.969-3.087-14.564S1850.233,285.567,1850.233,285.567Z" transform="translate(-1783.641 -274.808)"/><path class="v" d="M1830.98,246.171a1.236,1.236,0,0,1,1.651,1.411c-.275,1.572-.207,3.294,1.263,3.653,2.83.691,4.168,0,4.631.478s-1.338,3.03,0,3.508,2.058-4.093,3.242-4.093,1.441,6.591,0,8.079.206,3.508,2.11,3.508-.24,2.392,2.324,3.189,4.623.8,5.447-2.445a8.175,8.175,0,0,0,0-5.05s2.621-3.065,1.955-6.095a24.525,24.525,0,0,0-2.075-4.713,44.386,44.386,0,0,1-1.682-5.669c-.36-2.073-5.464-4.146-8.958-4.518s-1.745-2.5-4.678-2.5-3.336,3.874-3.336,3.874a42.162,42.162,0,0,0-4.383-2.385c-2.438,1.485-.412,4.093-.412,4.093a3.017,3.017,0,0,0-2.418,2.817c-.412,2.6,1.286,4.2,3.962,3.349C1830.129,246.5,1830.581,246.335,1830.98,246.171Z" transform="translate(-1763.443 -231.121)"/><path class="w" d="M1845.32,249.144a14.775,14.775,0,0,1,2.01.48c1.253.7,2.782,1.612,2.782,1.612a68.98,68.98,0,0,1,8.6,3.023,96.338,96.338,0,0,1,9.9,5.346c.1.278.158.443.158.443s.627,1.114,1.2,2.366a72.916,72.916,0,0,1-12.762-5C1851.09,254.5,1844.975,249.437,1845.32,249.144Z" transform="translate(-1780.682 -243.567)"/><path class="x" d="M1853.949,361.51s-1.251.777-3.205,2.163c-4.079,2.892-6.43-.33-8.244-.246-1.562,1.942-.941,9.6,1.6,11.147,1.6.971,5.58.01,7.827-2.16a7.185,7.185,0,0,0,2.247-4.752C1850.156,370.1,1850.075,366.14,1853.949,361.51Z" transform="translate(-1777.483 -341.861)"/><path class="d" d="M1937.142,350.384s1.415-2.606,2.675-1.152.6,7.6-1.338,7.6S1936.456,352.032,1937.142,350.384Z" transform="translate(-1860.676 -330.735)"/><path class="y" d="M2030.008,521.236s-3.6,2.738-3.532,14.843a104.394,104.394,0,0,0,3.1,21.342,29.728,29.728,0,0,1,16.623,0c.667-5.281-.68-16.551-1.519-20.192C2042.611,528.274,2035.148,519.187,2030.008,521.236Z" transform="translate(-1939.162 -481.328)"/><path class="n" d="M1872.581,210.881a11.147,11.147,0,0,1,20.125,9.591c-.1.212-.21.418-.323.62l-20.08-9.57C1872.389,211.307,1872.48,211.093,1872.581,210.881Z" transform="translate(-1804.298 -204.612)"/><path class="y" d="M1876.755,213.393c.086-.215.177-.429.278-.641a11.066,11.066,0,0,1,12-6.086,11.358,11.358,0,0,0-1.641-.958,11.1,11.1,0,0,0-14.814,5.173c-.1.212-.192.426-.278.641l20.08,9.57C1892.42,221.026,1876.755,213.393,1876.755,213.393Z" transform="translate(-1804.298 -204.612)"/><path class="z" d="M1800.656,227.613c.214-.448,10.669,3.816,17.353,7s11.93,6.132,11.716,6.58-11.3-2.155-17.985-5.341S1800.443,228.061,1800.656,227.613Z" transform="translate(-1741.617 -224.704)"/></g><g transform="translate(0 14.981)"><path class="aa" d="M425.269,1604.469c-2.037,2.327-1.756,7.2-2.178,7.491-.886.621-2.647-3.891-2.647-3.891l2.468-8.735s4.99-4.842,10.693-10.853a36.963,36.963,0,0,1,4.676,5.214C432.673,1597.816,427.736,1601.651,425.269,1604.469Z" transform="translate(-415.214 -1430.154)"/><path class="ab" d="M386.382,1672.534s-.308-.751-1.9-.122-5.8,7.439-5.8,7.439l1.044,1.126s3.376-4.8,3.624-4.547-2.734,5.6-2.294,6.376,4.161,5.083,5.411,5.091.3-3.528.3-3.528-2.275-1.763-2.271-2.29S386.382,1672.534,386.382,1672.534Z" transform="translate(-378.684 -1503.355)"/><path class="aa" d="M626.538,1662.522c.267,3.081,3.973,6.25,3.894,6.76-.166,1.069-4.64-.787-4.64-.787l-4.591-7.831s-.036-6.953-.421-15.23a36.966,36.966,0,0,1,7,.239C626.868,1652.574,626.214,1658.791,626.538,1662.522Z" transform="translate(-590.461 -1479.919)"/><path class="ab" d="M613.454,1767.34s-.755-.3-1.4,1.283,1.347,9.338,1.347,9.338l1.535.027s-1.123-5.759-.769-5.763,2.142,5.848,3.009,6.072,6.548.519,7.42-.377-2.333-2.663-2.333-2.663-2.847.42-3.225.051S613.454,1767.34,613.454,1767.34Z" transform="translate(-582.714 -1586.595)"/><path class="ac" d="M503.177,968.178l9.718-4.939-.317,4.132s8.94,40.155,6.79,46.217c-5.03,14.177-34.192,38.066-34.192,38.066l-5.735-5.257s22.462-30.905,22.462-36.8-7.328-39.348-7.328-39.348Z" transform="translate(-466.823 -883.214)"/><path class="ad" d="M607.614,1009.6c0-5.894-7.328-39.348-7.328-39.348l8.6-2.071,9.718-4.939-.317,4.132s1.343,6.033,2.863,13.776c-5.037,3.354-5.322,29.333-8.253,49.8l-8.884-12.951C606.17,1014.194,607.614,1011.091,607.614,1009.6Z" transform="translate(-572.534 -883.214)"/><path class="ae" d="M552.953,942.1s-.543,6.785-.543,7.741-8.538,75.894-5.83,88h-10.2s-11.151-68.66-11.151-79.971a34.491,34.491,0,0,1,5.416-18.8Z" transform="translate(-506.881 -862.073)"/><path class="af" d="M559.489,939.071l22.3,3.027s-.543,6.785-.543,7.741c0,.1-.1,1.1-.281,2.794a122.244,122.244,0,0,1-12.717-5.182c-5.706-2.967-7.344-6.142-10.05-6.238A20.644,20.644,0,0,1,559.489,939.071Z" transform="translate(-535.719 -862.073)"/><path class="aa" d="M561,470.714s-2.254,8.108-1.3,13.018c1.081,5.583,2.128,10.623,2.128,10.623l-13.582-12.743,3.851-16.1Z" transform="translate(-527.011 -447.816)"/><path class="ag" d="M588.111,478.318a38.685,38.685,0,0,1-4.479-3.092,8.766,8.766,0,0,1-3.15-6.029l.408-.917,8.313,4.857A51.358,51.358,0,0,0,588.111,478.318Z" transform="translate(-555.209 -450.24)"/><path class="ah" d="M509.8,575.262s10.912.239,18.8,8.125,7.806,7.328,7.806,10.355.956,15.771.956,23.258.944,11.637,0,11.789c-6.865,1.105-18.081-8.125-24.931-7.009,0,0-6.133-9.479-5.1-13.143s-.637-6.133-1.354-12.744S503.582,575.262,509.8,575.262Z" transform="translate(-489.371 -543.825)"/><path class="ai" d="M533.48,620.8c-3.827-5.277-6.822-14.19-.778-15.63,0,0,3.841,11.061,9.788,15.724,3.291,2.58,9.917,4.887,15.278,6.356.2,3.727.444,8.184.556,12.07C552.1,636.341,536.813,625.4,533.48,620.8Z" transform="translate(-510.404 -569.991)"/><path class="aj" d="M532.269,603.2a15.053,15.053,0,0,1,11.856,2.7c5.854,4.271,16.059,15.475,17,15.663,2.547.512,9.869.281,9.869.281s2.074,1.281,2.364,8.444c.155,3.841-10.491,5.414-13.994,5.144s-22.823-12.742-26.555-17.621S526.225,604.645,532.269,603.2Z" transform="translate(-509.97 -568.021)"/><path class="ai" d="M851.6,754.232l-.74.013a29.742,29.742,0,0,0,.761,11.708,9.1,9.1,0,0,0,1.915-1.062,21.5,21.5,0,0,0,.018-5.439Z" transform="translate(-791.464 -700.382)"/><path class="aa" d="M580.821,354.623s3.659,1.955,4.706,5.159.41,17.725-2.319,18.616-7.572-1.07-13.453-7.815S571.376,349.831,580.821,354.623Z" transform="translate(-544.006 -349.961)"/><path class="ak" d="M515.76,330.351s-3.035.9-3.756,6.572-5.6,7.1-7.9,9.463-3.083,7.483-9.984,5.462-5.47-8.738-4.075-13.5,7.24-11.142,12.245-13.186C507.765,322.926,519.362,324.757,515.76,330.351Z" transform="translate(-475.089 -324.233)"/><path class="al" d="M499.456,343.983c-3.733,2.876-7.146,7.211-8.165,10.692-1.4,4.765-2.821,11.484,4.15,13.525a7.4,7.4,0,0,0,5.222.008c-1.337,1.217-3.239,1.884-6.539.918-6.9-2.02-5.47-8.738-4.075-13.5C491.185,351.741,495.274,346.79,499.456,343.983Z" transform="translate(-475.089 -341.51)"/><path class="ak" d="M450.931,361.446s-.951,4.183-3.745,4.881-4.192.29-4.522-1.324-3.673-1.165-2.266-4.143,1.868-5.162,4.467-5.2,3.369.986,5.751,1.684S450.931,361.446,450.931,361.446Z" transform="translate(-432.368 -351.72)"/><path class="aa" d="M862.151,732.174s20.116-4.211,23.374-4.524,14.847.473,14.611,1.2-7.779,1.394-7.845,1.595.852,1.678.281,2.336a4.8,4.8,0,0,0-1.258,1.811c-.269.823-1.076.982-1.662,1.279a6.87,6.87,0,0,1-3.751.27c-1.1-.361-1.736-1.973-3.472-1.9s-18.93,5.668-18.93,5.668Z" transform="translate(-801.605 -677.066)"/><path class="ah" d="M862.971,748.949s-6.221,3.627-7.211,3.3-2.664-13.253-1.4-14.115,6.143-.3,6.431.263S864.155,748.278,862.971,748.949Z" transform="translate(-794.391 -685.913)"/></g></g></g></svg>