<svg xmlns="http://www.w3.org/2000/svg" width="118.244" height="73.405" viewBox="0 0 118.244 73.405"><defs><style>.a{fill:#f2f2f2;}.b{fill:#f2d399;}.c{fill:#f2a007;}</style></defs><g transform="translate(-300.9 -376)"><g transform="translate(300.9 399.459)"><path class="a" d="M334.485,459.3l-6.859,20.994H322.4l-4.632-14.224-4.781,14.224h-5.2L300.9,459.3h5.048l4.751,14.758,4.959-14.758h4.514l4.811,14.877,4.9-14.877Z" transform="translate(-300.9 -458.023)"/><path class="a" d="M430.9,484.38h-12.2a3.752,3.752,0,0,0,1.574,2.376,5.091,5.091,0,0,0,3.059.861,5.843,5.843,0,0,0,2.227-.386,5.315,5.315,0,0,0,1.811-1.188l2.494,2.7c-1.514,1.752-3.742,2.613-6.652,2.613a10.558,10.558,0,0,1-4.84-1.069,7.66,7.66,0,0,1-3.237-2.969A8.041,8.041,0,0,1,414,483.015a8.362,8.362,0,0,1,1.128-4.276,7.818,7.818,0,0,1,3.088-2.969,9,9,0,0,1,4.395-1.069,9.114,9.114,0,0,1,4.306,1.01,7.588,7.588,0,0,1,3.029,2.94,8.584,8.584,0,0,1,1.1,4.424A6.377,6.377,0,0,0,430.9,484.38Zm-10.957-5.2a3.8,3.8,0,0,0-1.307,2.465h7.958a3.8,3.8,0,0,0-1.307-2.435,3.877,3.877,0,0,0-2.643-.921A4.06,4.06,0,0,0,419.939,479.184Z" transform="translate(-380.415 -468.85)"/><path class="a" d="M496.369,462.691a7.156,7.156,0,0,1,1.841,5.345v9.235h-4.692v-8.522a4.276,4.276,0,0,0-.831-2.88,3.109,3.109,0,0,0-2.435-.95,3.691,3.691,0,0,0-2.821,1.1,4.5,4.5,0,0,0-1.039,3.266v7.988H481.7V455h4.692v7.81a6.1,6.1,0,0,1,2.257-1.425,8.268,8.268,0,0,1,2.88-.5A6.734,6.734,0,0,1,496.369,462.691Z" transform="translate(-428.012 -455)"/><path class="a" d="M562.124,473.168c1.425,1.277,2.138,3.177,2.138,5.731v9.829H559.6V486.59c-.95,1.6-2.673,2.405-5.256,2.405a8.191,8.191,0,0,1-3.445-.683,5.116,5.116,0,0,1-2.227-1.841,4.926,4.926,0,0,1-.772-2.673,4.448,4.448,0,0,1,1.811-3.771c1.218-.921,3.059-1.366,5.583-1.366h3.979a3.223,3.223,0,0,0-.98-2.524,4.328,4.328,0,0,0-2.969-.891,8.449,8.449,0,0,0-2.7.445,7.681,7.681,0,0,0-2.257,1.158l-1.782-3.474a11.489,11.489,0,0,1,3.385-1.544,15.387,15.387,0,0,1,4.039-.535A8.73,8.73,0,0,1,562.124,473.168Zm-4.246,11.848a3.183,3.183,0,0,0,1.4-1.752v-1.752h-3.415c-2.049,0-3.059.683-3.059,2.019a1.733,1.733,0,0,0,.742,1.514,3.291,3.291,0,0,0,2.049.564A4.173,4.173,0,0,0,557.877,485.017Z" transform="translate(-474.554 -466.457)"/><path class="a" d="M629.891,475.53v16.154h-4.454v-1.93a5.945,5.945,0,0,1-2.227,1.6,7.207,7.207,0,0,1-2.791.564,6.94,6.94,0,0,1-5.048-1.841,7.268,7.268,0,0,1-1.871-5.434V475.53h4.692v8.433c0,2.613,1.1,3.89,3.266,3.89a3.472,3.472,0,0,0,2.7-1.1,4.63,4.63,0,0,0,1.01-3.266V475.5h4.721Z" transform="translate(-520.675 -469.413)"/><path class="a" d="M683.3,455h4.692v22.271H683.3Z" transform="translate(-569.748 -455)"/></g><path class="b" d="M460.187,388.145l-3.979,2.643A18.172,18.172,0,0,0,438.362,376H401.273A18.192,18.192,0,0,0,383.1,394.173v.861h6.533v-.861a11.659,11.659,0,0,1,11.64-11.64h37.089a11.671,11.671,0,0,1,10.839,7.394l-2.94-1.841-2.88,4.6,10.185,6.355,9.621-6.414Z" transform="translate(-57.791)"/><path class="c" d="M435.519,545.672v.861a11.659,11.659,0,0,1-11.64,11.64H386.79a11.656,11.656,0,0,1-11.492-9.8l4.128,2.583,2.88-4.6L372.121,540l-9.621,6.414,3.029,4.514,3.266-2.168a18.192,18.192,0,0,0,18.025,15.946h37.089a18.192,18.192,0,0,0,18.173-18.173v-.861Z" transform="translate(-43.308 -115.301)"/></g></svg>