<svg xmlns="http://www.w3.org/2000/svg" width="120.723" height="116.698" viewBox="0 0 120.723 116.698"><defs><style>.a{fill:#40d192;}</style></defs><g transform="translate(0 -7.982)"><g transform="translate(0 46.311)"><g transform="translate(0)"><path class="a" d="M102.575,160.017H1.728A1.726,1.726,0,0,0,0,161.741V210.15a1.726,1.726,0,0,0,1.724,1.728H70.3a1.728,1.728,0,1,0,0-3.457H3.457V163.474h97.386V167.8a1.726,1.726,0,0,0,1.724,1.728h0A1.726,1.726,0,0,0,104.3,167.8v-6.055A1.727,1.727,0,0,0,102.575,160.017Z" transform="translate(0 -160.017)"/></g></g><g transform="translate(4.032 20.093)"><g transform="translate(0 0)"><path class="a" d="M102.812,74.213,22.138,56.061a1.728,1.728,0,0,0-2.067,1.311L16.037,75.524a1.729,1.729,0,0,0,3.376.75l3.657-16.46,78.984,17.77a1.63,1.63,0,0,0,.381.042,1.728,1.728,0,0,0,.377-3.415Z" transform="translate(-15.995 -56.019)"/></g></g><g transform="translate(26.187 7.982)"><path class="a" d="M158.74,28.284l-48.4-20.169a1.734,1.734,0,0,0-2.219.825l-4.034,8.067a1.734,1.734,0,1,0,3.051,1.65c.018-.033.035-.067.05-.1v0l3.31-6.623,46.91,19.545a1.733,1.733,0,1,0,1.335-3.2Z" transform="translate(-103.875 -7.982)"/></g><g transform="translate(64.539 54.378)"><path class="a" d="M273.736,192.017H257.728a1.728,1.728,0,1,0,0,3.457h16.008a1.728,1.728,0,1,0,0-3.457Z" transform="translate(-256 -192.017)"/></g><g transform="translate(32.385 54.493)"><path class="a" d="M146.2,192.473a17.748,17.748,0,1,0,17.748,17.748A17.748,17.748,0,0,0,146.2,192.473Zm0,32.27a14.521,14.521,0,1,1,14.521-14.521A14.521,14.521,0,0,1,146.2,224.743Z" transform="translate(-128.456 -192.473)"/></g><g transform="translate(76.352 60.141)"><path class="a" d="M325.041,214.873c-10.689,0-22.185,2.525-22.185,8.067v48.4c0,5.542,11.5,8.067,22.185,8.067s22.185-2.525,22.185-8.067v-48.4C347.227,217.4,335.731,214.873,325.041,214.873Zm18.152,56.442c-.3,1.119-6.353,4.064-18.152,4.064s-17.847-2.945-18.152-4.034v-3.171c4.292,2.162,11.381,3.171,18.152,3.171s13.862-1.019,18.152-3.173Zm0-8.067c-.3,1.119-6.353,4.064-18.152,4.064s-17.847-2.945-18.152-4.034v-3.17c4.292,2.162,11.381,3.17,18.152,3.17s13.862-1.018,18.152-3.172Zm0-8.067c-.3,1.119-6.353,4.064-18.152,4.064s-17.847-2.945-18.152-4.034v-3.17c4.292,2.162,11.381,3.17,18.152,3.17s13.862-1.019,18.152-3.173Zm0-8.067c-.3,1.119-6.353,4.064-18.152,4.064s-17.847-2.945-18.152-4.034v-3.171c4.292,2.162,11.381,3.171,18.152,3.171s13.862-1.019,18.152-3.173Zm0-8.067c-.3,1.119-6.353,4.064-18.152,4.064s-17.847-2.945-18.152-4.034V235.9c4.292,2.152,11.381,3.17,18.152,3.17s13.862-1.019,18.152-3.173Zm0-8.067c-.3,1.119-6.353,4.064-18.152,4.064s-17.847-2.945-18.152-4.034v-3.17c4.292,2.152,11.381,3.17,18.152,3.17s13.862-1.019,18.152-3.173Zm-18.152-4c-11.78,0-17.827-2.937-18.152-4v-.012c.325-1.123,6.371-4.058,18.152-4.058,11.7,0,17.748,2.892,18.152,4.034C342.79,224.082,336.739,226.974,325.041,226.974Z" transform="translate(-302.856 -214.873)"/></g><g transform="translate(8.065 54.378)"><path class="a" d="M57.925,224.285H42.679l-7.228-7.906v-13.11l7.983-7.8H57.925a1.728,1.728,0,1,0,0-3.457H42.732a1.73,1.73,0,0,0-1.21.49l-9.009,8.787a2.167,2.167,0,0,0-.52,1.412V217.05a1.73,1.73,0,0,0,.452,1.166l8.194,8.963a1.728,1.728,0,0,0,1.277.563h16.01a1.728,1.728,0,1,0,0-3.457Z" transform="translate(-31.992 -192.017)"/></g><g transform="translate(44.082 63.166)"><path class="a" d="M181.915,233.932H179.9c-.627,0-1.008-.351-1.008-.5s.381-.5,1.008-.5h5.042a2.017,2.017,0,1,0,0-4.034h-2.017a2.017,2.017,0,1,0-4.034,0v.091a4.7,4.7,0,0,0-4.034,4.437,4.816,4.816,0,0,0,5.042,4.548h2.017c.627,0,1.008.351,1.008.5s-.381.5-1.008.5h-5.042a2.017,2.017,0,0,0,0,4.034h2.017a2.017,2.017,0,0,0,4.034,0v-.091a4.7,4.7,0,0,0,4.034-4.437A4.816,4.816,0,0,0,181.915,233.932Z" transform="translate(-174.856 -226.873)"/></g></g></svg>