<svg xmlns="http://www.w3.org/2000/svg" width="454.375" height="275.609" viewBox="0 0 454.375 275.609"><defs><style>.a{fill:#f3f7ff;}.b,.d{fill:#fff;}.b,.e{stroke:#75a4fe;}.b,.e,.f{stroke-linecap:round;stroke-width:2.5px;}.b,.d,.e,.f{stroke-miterlimit:10;}.c{fill:#e8f0fe;}.e,.f{fill:none;stroke-linejoin:round;}.f{stroke:#a4c3fe;}.g,.h{stroke:none;}.h{fill:#75a4fe;}</style></defs><g transform="translate(-47 -50)"><path class="a" d="M125.157,190.457a19.046,19.046,0,0,1,0-38.092H19.046a19.045,19.045,0,1,1,0-38.09H127.877a19.046,19.046,0,1,0,0-38.092H59.857a19.045,19.045,0,0,1,0-38.09H168.69A19.046,19.046,0,0,1,168.69,0H435.329a19.046,19.046,0,0,1,0,38.092H326.5a19.045,19.045,0,1,1,0,38.09h59.859a19.046,19.046,0,0,1,0,38.092H358.672c-13.262,0-24.012,8.526-24.012,19.044s16.323,19.046,16.323,19.046a19.046,19.046,0,0,1,0,38.092ZM416.283,95.228a19.046,19.046,0,1,1,19.046,19.046A19.045,19.045,0,0,1,416.283,95.228Z" transform="translate(47 90.812)"/><path class="b" d="M171.411,217.608H10.882A10.9,10.9,0,0,1,0,206.724V5.441A5.447,5.447,0,0,1,5.441,0H5.5L18.8.14,29.554.249l7.725.084L179.67,1.77l2.623,186.3v18.657A10.9,10.9,0,0,1,171.411,217.608Z" transform="translate(158.687 108.23) rotate(-7)"/><path class="c" d="M160.9,1.657l2.35,168.83V187.4a9.805,9.805,0,0,1-9.746,9.863H9.746A9.805,9.805,0,0,1,0,187.4V5.442A5.442,5.442,0,0,1,5.442,0H23.226" transform="translate(170.444 117.671) rotate(-7)"/><g class="d" transform="translate(209.355 50)"><path class="g" d="M 171.4105072021484 227.2973480224609 L 10.88321876525879 227.2973480224609 C 5.571454048156738 227.2973480224609 1.250012874603271 222.9759368896484 1.250012874603271 217.6641693115234 L 1.250012874603271 10.88320350646973 C 1.250012874603271 5.571438789367676 5.571454048156738 1.249997496604919 10.88321876525879 1.249997496604919 L 134.8341369628906 1.249997496604919 C 136.1050720214844 1.249997496604919 137.3449249267578 1.496526956558228 138.5192260742188 1.982703447341919 C 139.6935119628906 2.46890926361084 140.7447509765625 3.170968055725098 141.6437225341797 4.069379806518555 L 178.2201232910156 40.62314605712891 C 179.1198425292969 41.52231979370117 179.8229217529297 42.57405471801758 180.3098602294922 43.7491455078125 C 180.7968292236328 44.92423248291016 181.0437469482422 46.16499710083008 181.0437469482422 47.43696975708008 L 181.0437469482422 217.6641693115234 C 181.0437469482422 222.9759368896484 176.7223052978516 227.2973480224609 171.4105072021484 227.2973480224609 Z"/><path class="h" d="M 10.88319396972656 2.5 C 6.26068115234375 2.5 2.500015258789063 6.26068115234375 2.500015258789063 10.88320922851563 L 2.500015258789063 217.6641693115234 C 2.500015258789063 222.2866668701172 6.26068115234375 226.0473480224609 10.88319396972656 226.0473480224609 L 171.4105072021484 226.0473480224609 C 176.0330505371094 226.0473480224609 179.7937164306641 222.2866668701172 179.7937164306641 217.6641693115234 L 179.7937164306641 47.43696594238281 C 179.7937164306641 45.19677734375 178.9210510253906 43.09092712402344 177.3365020751953 41.50732421875 L 140.7600708007813 4.953536987304688 C 139.1769714355469 3.371353149414063 137.0724029541016 2.5 134.8341522216797 2.5 L 10.88319396972656 2.5 M 10.88319396972656 0 L 134.8341522216797 0 C 137.7193603515625 0 140.4865417480469 1.145675659179688 142.5273284912109 3.18524169921875 L 179.1037292480469 39.73899841308594 C 181.1461486816406 41.78021240234375 182.2937164306641 44.54939270019531 182.2937164306641 47.43696594238281 L 182.2937164306641 217.6641693115234 C 182.2937164306641 223.6747741699219 177.4211578369141 228.5473480224609 171.4105072021484 228.5473480224609 L 10.88319396972656 228.5473480224609 C 4.872573852539063 228.5473480224609 1.52587890625e-05 223.6747741699219 1.52587890625e-05 217.6641693115234 L 1.52587890625e-05 10.88320922851563 C 1.52587890625e-05 4.872573852539063 4.872573852539063 0 10.88319396972656 0 Z"/></g><path class="e" d="M0,0V31.554a8.162,8.162,0,0,0,8.162,8.162H29.748" transform="translate(345.395 56.538)"/><path class="f" d="M0,138.759H0ZM0,103.39H0ZM0,68.018H0ZM0,32.649H0ZM0,0H0Z" transform="translate(242.005 96.255)"/></g></svg>