<svg xmlns="http://www.w3.org/2000/svg" width="85.713" height="91.469" viewBox="0 0 85.713 91.469"><defs><style>.a{fill:#113e82;}</style></defs><g transform="translate(-0.001 0)"><path class="a" d="M27.18,267.778a14.967,14.967,0,1,0-18.356,0A17.982,17.982,0,0,0,0,283.273v6.067a2.832,2.832,0,0,0,2.832,2.832H33.171A2.833,2.833,0,0,0,36,289.34v-6.067a17.982,17.982,0,0,0-8.824-15.494ZM8.7,255.968a9.3,9.3,0,1,1,9.3,9.3A9.314,9.314,0,0,1,8.7,255.968Zm21.64,30.54H5.665v-3.235a12.336,12.336,0,0,1,24.673,0v3.235Zm0,0" transform="translate(0 -200.704)"/><path class="a" d="M236.441,0H203.574A10.767,10.767,0,0,0,192.8,10.773v49.3a2.559,2.559,0,0,0,4.091,2.046l10.273-7.705H236.44a10.767,10.767,0,0,0,10.773-10.773V10.773A10.767,10.767,0,0,0,236.44,0Zm5.659,43.64a5.655,5.655,0,0,1-5.659,5.659H206.313a2.559,2.559,0,0,0-1.534.511l-6.864,5.148V10.773a5.655,5.655,0,0,1,5.659-5.659h32.866a5.655,5.655,0,0,1,5.659,5.659Zm0,0" transform="translate(-161.5 0)"/><path class="a" d="M287.274,80.332H259.645a2.579,2.579,0,1,0,0,5.159h27.629a2.579,2.579,0,0,0,0-5.159Zm0,0" transform="translate(-214.943 -66.032)"/><path class="a" d="M287.274,144.6H259.645a2.579,2.579,0,1,0,0,5.159h27.629a2.579,2.579,0,0,0,0-5.159Zm0,0" transform="translate(-214.943 -119.883)"/><path class="a" d="M273.459,208.867H259.645a2.579,2.579,0,1,0,0,5.159h13.814a2.579,2.579,0,0,0,0-5.159Zm0,0" transform="translate(-211.348 -173.729)"/></g></svg>