<svg xmlns="http://www.w3.org/2000/svg" width="30" height="30.013" viewBox="0 0 30 30.013"><defs><style>.a{fill:#113e82;}</style></defs><path class="a" d="M10.714,22.513H5.968a1.172,1.172,0,0,1,0-2.344h4.746A1.172,1.172,0,0,1,10.714,22.513Zm4.922-5.859a1.172,1.172,0,0,0-1.172-1.172h-8.5a1.172,1.172,0,0,0,0,2.344h8.5A1.172,1.172,0,0,0,15.636,16.654Zm7.441,13.359a2.834,2.834,0,0,1-2.566-1.658,1.176,1.176,0,0,0-2.134,0,2.834,2.834,0,0,1-2.566,1.658H7.14A7.039,7.039,0,0,1,.109,22.982V15.013A7.039,7.039,0,0,1,7.14,7.982h8.672A2.834,2.834,0,0,1,18.378,9.64a1.176,1.176,0,0,0,2.134,0,2.834,2.834,0,0,1,2.566-1.658,7.039,7.039,0,0,1,7.031,7.031v7.969a7.039,7.039,0,0,1-7.031,7.031Zm-3.633-4.687a3.526,3.526,0,0,1,3.2,2.054.485.485,0,0,0,.435.289,4.693,4.693,0,0,0,4.687-4.687V15.013a4.693,4.693,0,0,0-4.687-4.687.485.485,0,0,0-.435.289,3.525,3.525,0,0,1-6.4,0,.484.484,0,0,0-.435-.289H7.14a4.693,4.693,0,0,0-4.688,4.688v7.969A4.693,4.693,0,0,0,7.14,27.669h8.672a.485.485,0,0,0,.435-.289A3.526,3.526,0,0,1,19.445,25.325ZM28.32,7.041a1.172,1.172,0,0,1-1.147-.936,4.687,4.687,0,0,0-5.537-3.645.485.485,0,0,0-.367.371,3.526,3.526,0,0,1-2.718,2.658,3.5,3.5,0,0,1-.706.072A3.527,3.527,0,0,1,15,4.123a.485.485,0,0,0-.484-.2L3.163,6.316A1.172,1.172,0,1,1,2.68,4.022l11.362-2.39A2.835,2.835,0,0,1,16.9,2.738a1.173,1.173,0,0,0,2.09-.431c.791-3.186,5.356-2.575,7.464-1.129a6.985,6.985,0,0,1,3.021,4.454A1.173,1.173,0,0,1,28.32,7.041ZM20.91,21.693a1.465,1.465,0,1,1-1.465-1.465A1.465,1.465,0,0,1,20.91,21.693Zm-1.465-6.8a1.465,1.465,0,1,0,1.465,1.465A1.465,1.465,0,0,0,19.445,14.9Z" transform="translate(-0.109 0)"/></svg>