<svg xmlns="http://www.w3.org/2000/svg" width="89.231" height="78.312" viewBox="0 0 89.231 78.312"><defs><style>.a,.b{fill:#fff;}.a{stroke:#fff;stroke-width:0.6px;}</style></defs><g transform="translate(-580.308 -255)"><g transform="translate(472.932 266.696)"><path class="a" d="M152.068,40.739S139.4,27.892,139.4,21.526,145.07,10,152.068,10s12.668,5.161,12.668,11.526S152.068,40.739,152.068,40.739Zm0-29.26c-6.1,0-11.045,4.567-11.045,10.2s11.045,17,11.045,17,11.045-11.365,11.045-17S158.167,11.479,152.068,11.479Zm0,15.415a5.28,5.28,0,1,1,5.28-5.28A5.281,5.281,0,0,1,152.068,26.894Zm0-9.1a3.9,3.9,0,1,0,3.9,3.9,3.9,3.9,0,0,0-3.9-3.9Z" transform="translate(0 0)"/><path class="a" d="M255.352,786.4l-1.093,1.075c.717.457,1.142.963,1.142,1.455,0,1.387-3.25,2.94-7.6,2.94s-7.6-1.549-7.6-2.94c0-.534.492-1.093,1.338-1.581l-1-1.149a3.372,3.372,0,0,0-1.837,2.73c0,2.522,3.91,4.43,9.1,4.43s9.1-1.9,9.1-4.43A3.215,3.215,0,0,0,255.352,786.4Z" transform="translate(-95.812 -748.931)"/></g><g transform="translate(580.309 231.205)"><path class="b" d="M110.629,47.619a1.147,1.147,0,0,0-.572-.666l-2.047-1.036a1.147,1.147,0,0,0-1.542.505l-3.954,7.814A38.687,38.687,0,0,0,27.9,50.629a1.147,1.147,0,0,0,.74,1.444l2.183.7a1.147,1.147,0,0,0,1.444-.74,34.1,34.1,0,0,1,66,4.41L89.475,52a1.147,1.147,0,0,0-1.542.506L86.9,54.548A1.147,1.147,0,0,0,87.4,56.09l14.354,7.264a1.146,1.146,0,0,0,1.542-.505l7.264-14.354A1.149,1.149,0,0,0,110.629,47.619Z" transform="translate(-21.456)"/><path class="b" d="M82.047,203.572l-2.183-.7a1.146,1.146,0,0,0-1.444.74,34.1,34.1,0,0,1-66-4.41l8.8,4.451a1.147,1.147,0,0,0,1.542-.506l1.036-2.047a1.147,1.147,0,0,0-.506-1.542L8.929,192.291a1.147,1.147,0,0,0-1.542.506L.123,207.151a1.147,1.147,0,0,0,.506,1.542l2.047,1.036a1.147,1.147,0,0,0,1.542-.505l3.954-7.814a38.687,38.687,0,0,0,74.615,3.607,1.147,1.147,0,0,0-.74-1.444Z" transform="translate(0 -129.742)"/></g></g></svg>