<svg xmlns="http://www.w3.org/2000/svg" width="60.642" height="69.566" viewBox="0 0 60.642 69.566"><defs><style>.a{fill:#fff;}</style></defs><path class="a" d="M49.549,67.9a1.663,1.663,0,0,1-1.663,1.663c-4.442,0-5.918-3.1-7.105-5.584-.161-.339-3.223-6.384-3.223-6.384-6.49-12.756-13.415-26.944-13.415-33.855a23.745,23.745,0,0,1,47.171-3.872,1.663,1.663,0,0,1-3.283.539A20.418,20.418,0,0,0,27.47,23.743c0,6.692,8.491,23.381,13.053,32.347,0,0,3.092,6.105,3.261,6.46,1.22,2.558,1.854,3.689,4.1,3.689A1.663,1.663,0,0,1,49.549,67.9ZM47.886,15.167a8.576,8.576,0,1,1-8.576,8.576A8.586,8.586,0,0,1,47.886,15.167Zm0,3.327a5.249,5.249,0,1,0,5.249,5.249A5.255,5.255,0,0,0,47.886,18.494ZM83.862,35.023,66.469,65.918q-.02.035-.042.07a7.667,7.667,0,0,1-6.455,3.579l-.189,0a6.908,6.908,0,0,1-5.973-3.613L44.545,49.489v0A7.244,7.244,0,0,1,57.182,42.4l2.949,5.239,11.093-19.7a7.244,7.244,0,0,1,12.637,7.087Zm-4.4-6.96a3.918,3.918,0,0,0-5.333,1.5L61.581,51.848a1.663,1.663,0,0,1-2.9,0l-4.4-7.817a3.918,3.918,0,1,0-6.838,3.826l9.269,16.465a3.616,3.616,0,0,0,3.157,1.916,4.315,4.315,0,0,0,3.723-1.991L80.961,33.394A3.922,3.922,0,0,0,79.458,28.064Z" transform="translate(-24.143)"/></svg>