<svg xmlns="http://www.w3.org/2000/svg" width="25.013" height="25.012" viewBox="0 0 25.013 25.012"><defs><style>.a{fill:#fbfcff;}</style></defs><g transform="translate(0 -0.011)"><g transform="translate(0 0.011)"><path class="a" d="M23.547,13.493h-.489v-3.42a2.838,2.838,0,0,0-2.21-2.764L18.625,3.458a2.441,2.441,0,0,0-2.814-1.117L14.194.724a2.443,2.443,0,0,0-3.451,0L4.228,7.24H2.833A2.837,2.837,0,0,0,0,10.073V22.189a2.837,2.837,0,0,0,2.833,2.833h6.5a.489.489,0,1,0,0-.977h-6.5A1.859,1.859,0,0,1,.977,22.189V10.073A1.859,1.859,0,0,1,2.833,8.217H20.225a1.859,1.859,0,0,1,1.856,1.856v3.42H18.466a2.638,2.638,0,0,0,0,5.276h3.615v3.42a1.859,1.859,0,0,1-1.856,1.856h-6.5a.489.489,0,0,0,0,.977h6.5a2.837,2.837,0,0,0,2.833-2.833v-3.42h.489A1.467,1.467,0,0,0,25.013,17.3V14.958A1.467,1.467,0,0,0,23.547,13.493ZM16.891,3.265a1.453,1.453,0,0,1,.888.682l1.9,3.293H9.15l6.631-3.828a1.453,1.453,0,0,1,1.11-.146Zm-5.456-1.85a1.463,1.463,0,0,1,2.069,0L14.887,2.8,7.2,7.24H5.61ZM24.036,17.3a.489.489,0,0,1-.489.489H18.466a1.661,1.661,0,0,1,0-3.322h5.081a.489.489,0,0,1,.489.489Z" transform="translate(0 -0.011)"/><path class="a" d="M366.819,319.988a.489.489,0,1,0,.345.143A.492.492,0,0,0,366.819,319.988Z" transform="translate(-348.434 -304.356)"/><path class="a" d="M226.489,491.988a.489.489,0,1,0,.345.143A.492.492,0,0,0,226.489,491.988Z" transform="translate(-214.959 -467.953)"/></g></g></svg>