<svg xmlns="http://www.w3.org/2000/svg" width="296.113" height="183.825" viewBox="0 0 296.113 183.825"><defs><style>.a{fill:#f2f2f2;}.b{fill:#f2d399;}.c{fill:#f2a007;}</style></defs><g transform="translate(-300.9 -376)"><g transform="translate(300.9 434.747)"><path class="a" d="M385,459.3l-17.178,52.575H354.739l-11.6-35.62-11.972,35.62H318.152L300.9,459.3h12.642l11.9,36.958L337.858,459.3h11.3l12.047,37.256,12.27-37.256Z" transform="translate(-300.9 -456.102)"/><path class="a" d="M456.312,498.942H425.749a9.4,9.4,0,0,0,3.941,5.949,12.751,12.751,0,0,0,7.659,2.156,14.631,14.631,0,0,0,5.577-.967,13.311,13.311,0,0,0,4.536-2.975l6.246,6.767c-3.792,4.388-9.37,6.544-16.657,6.544a26.439,26.439,0,0,1-12.121-2.677,19.183,19.183,0,0,1-8.106-7.436A20.137,20.137,0,0,1,414,495.522a20.941,20.941,0,0,1,2.826-10.708,19.58,19.58,0,0,1,7.734-7.436,22.534,22.534,0,0,1,11.006-2.677,22.823,22.823,0,0,1,10.783,2.528,19,19,0,0,1,7.585,7.362,21.5,21.5,0,0,1,2.751,11.08A15.967,15.967,0,0,0,456.312,498.942Zm-27.44-13.014A9.508,9.508,0,0,0,425.6,492.1H445.53a9.508,9.508,0,0,0-3.272-6.1,9.709,9.709,0,0,0-6.618-2.305A10.168,10.168,0,0,0,428.872,485.929Z" transform="translate(-329.896 -460.051)"/><path class="a" d="M518.435,474.26c3.049,2.975,4.611,7.436,4.611,13.385v23.127H511.3V489.43c0-3.2-.669-5.577-2.082-7.213a7.786,7.786,0,0,0-6.1-2.38,9.244,9.244,0,0,0-7.064,2.751c-1.785,1.859-2.6,4.536-2.6,8.18v20H481.7V455h11.749v19.557a15.284,15.284,0,0,1,5.652-3.57,20.706,20.706,0,0,1,7.213-1.264A16.863,16.863,0,0,1,518.435,474.26Z" transform="translate(-347.252 -455)"/><path class="a" d="M583.52,475.984c3.569,3.2,5.354,7.957,5.354,14.352V514.95H577.2V509.6c-2.38,4.016-6.693,6.023-13.162,6.023a20.512,20.512,0,0,1-8.626-1.71,12.812,12.812,0,0,1-5.577-4.61,12.338,12.338,0,0,1-1.933-6.693,11.14,11.14,0,0,1,4.536-9.444c3.049-2.305,7.659-3.421,13.98-3.421h9.965a8.072,8.072,0,0,0-2.454-6.321c-1.636-1.487-4.164-2.231-7.436-2.231a21.162,21.162,0,0,0-6.767,1.115,19.239,19.239,0,0,0-5.651,2.9l-4.462-8.7a28.775,28.775,0,0,1,8.477-3.867A38.531,38.531,0,0,1,568.2,471.3C574.819,471.225,579.95,472.786,583.52,475.984Zm-10.634,29.671a7.972,7.972,0,0,0,3.5-4.388V496.88h-8.551c-5.131,0-7.66,1.71-7.66,5.057a4.339,4.339,0,0,0,1.859,3.792,8.24,8.24,0,0,0,5.131,1.413A10.452,10.452,0,0,0,572.886,505.655Z" transform="translate(-364.224 -459.178)"/><path class="a" d="M654.548,475.574v40.453H643.394v-4.834a14.889,14.889,0,0,1-5.577,4.016,18.051,18.051,0,0,1-6.99,1.413c-5.28,0-9.518-1.562-12.642-4.61S613.5,504.427,613.5,498.4V475.574h11.749v21.119c0,6.544,2.752,9.742,8.18,9.742a8.7,8.7,0,0,0,6.767-2.751c1.71-1.859,2.528-4.536,2.528-8.18v-20h11.824Z" transform="translate(-381.042 -460.256)"/><path class="a" d="M683.3,455h11.749v55.772H683.3Z" transform="translate(-398.936 -455)"/></g><path class="b" d="M576.146,406.414l-9.965,6.618A45.507,45.507,0,0,0,521.489,376H428.61a45.558,45.558,0,0,0-45.51,45.51v2.157h16.36V421.51a29.2,29.2,0,0,1,29.15-29.15h92.879a29.227,29.227,0,0,1,27.143,18.516l-7.362-4.611-7.213,11.526,25.506,15.914,24.094-16.062Z" transform="translate(-21.074 0)"/><path class="c" d="M545.359,554.2v2.157a29.2,29.2,0,0,1-29.15,29.15H423.329a29.19,29.19,0,0,1-28.778-24.54l10.336,6.47,7.213-11.526L386.594,540,362.5,556.062l7.585,11.3,8.18-5.428A45.558,45.558,0,0,0,423.4,601.87h92.879a45.558,45.558,0,0,0,45.51-45.51V554.2Z" transform="translate(-15.793 -42.045)"/></g></svg>